name N:\Shared_Data\HIL\Data Collection\CoPD-X-MoreData\processed\iteration012\grf0012.mot
datacolumns 19
datarows 33
range 2326.396129 2326.449469
endheader
time	ground_force1_vx	ground_force1_vy	ground_force1_vz	ground_force1_px	ground_force1_py	ground_force1_pz	ground_force2_vx	ground_force2_vy	ground_force2_vz	ground_force2_px	ground_force2_py	ground_force2_pz	ground_torque1_x	ground_torque1_y	ground_torque1_z	ground_torque2_x	ground_torque2_y	ground_torque2_z	
2326.396129	-1.657605695	2.922957032	-0.3171862692	8.150087239	0	-0.1264996141	-43.229034	798.0511835	-54.93592858	8.3968523	0	-0.04440851724	0	-0.1099300184	0	0	-4.005985878	0	
2326.397803	-2.267832416	4.213137352	-0.5537248496	8.184120557	0	-0.1053146554	-43.75966424	797.7775175	-55.12638696	8.397349171	0	-0.04442988623	0	-0.1379621643	0	0	-3.937230024	0	
2326.399467	-2.930189762	5.715953004	-0.8361617027	8.212351138	0	-0.08847819466	-44.29207146	797.4052853	-55.30416865	8.397848064	0	-0.0444499852	0	-0.173299438	0	0	-3.8706241	0	
2326.401134	-3.626334269	7.421916258	-1.162138433	8.237437909	0	-0.07401110463	-44.82672161	796.9324535	-55.46854532	8.398348638	0	-0.04446874703	0	-0.2164725115	0	0	-3.806414178	0	
2326.402803	-4.336049321	9.316330403	-1.528027776	8.260659273	0	-0.06095956503	-45.3640525	796.3569503	-55.61878236	8.398850581	0	-0.0444861012	0	-0.268577704	0	0	-3.74484341	0	
2326.404464	-5.038806904	11.38154074	-1.929208351	8.282700115	0	-0.0488120108	-45.90446989	795.6766613	-55.75413968	8.399353619	0	-0.04450197362	0	-0.3311109645	0	0	-3.686151098	0	
2326.406133	-5.71529922	13.59935932	-2.360398055	8.303942882	0	-0.03728109083	-46.44834351	794.8894267	-55.8738726	8.399857516	0	-0.04451628661	0	-0.4058601827	0	0	-3.63057177	0	
2326.407795	-6.348740562	15.9533092	-2.816003134	8.324593552	0	-0.02620821114	-46.99600329	793.9930384	-55.97723286	8.400362075	0	-0.04452895875	0	-0.4947802081	0	0	-3.57833425	0	
2326.409467	-6.925805516	18.43042626	-3.290444566	8.344744408	0	-0.01551572387	-47.54773556	792.9852377	-56.06346968	8.400867146	0	-0.04453990491	0	-0.5998363573	0	0	-3.529660753	0	
2326.411137	-7.437146729	21.0224771	-3.778433591	8.364410245	0	-0.00517961719	-48.10377949	791.8637133	-56.13183107	8.40137262	0	-0.04454903618	0	-0.7228265448	0	0	-3.484765972	0	
2326.412805	-7.877500198	23.72655651	-4.27517948	8.38355274	0	0.004788325411	-48.66432352	790.6261001	-56.18156518	8.401878439	0	-0.04455625994	0	-0.8652034465	0	0	-3.443856186	0	
2326.414466	-8.245431396	26.54510732	-4.776522735	8.402099338	0	0.01435372396	-49.22950214	789.2699786	-56.21192179	8.402384589	0	-0.04456147986	0	-1.027921892	0	0	-3.407128373	0	
2326.416135	-8.542802722	29.48545678	-5.278995156	8.419959298	0	0.02347028387	-49.7993926	787.792875	-56.22215403	8.40289111	0	-0.04456459604	0	-1.211334581	0	0	-3.374769341	0	
2326.417804	-8.774054827	32.55899258	-5.779814505	8.437037774	0	0.03208877354	-50.37401203	786.1922614	-56.21152014	8.40339809	0	-0.0445655051	0	-1.41515216	0	0	-3.346954861	0	
2326.419467	-8.945394368	35.78011126	-6.27682567	8.453247883	0	0.040164446	-50.95331464	784.4655578	-56.17928548	8.403905667	0	-0.04456410029	0	-1.638473117	0	0	-3.323848819	0	
2326.421129	-9.063971935	39.16506663	-6.768402532	8.468520284	0	0.0476627581	-51.53718915	782.6101336	-56.1247246	8.40441403	0	-0.04456027171	0	-1.879877169	0	0	-3.305602386	0	
2326.4228	-9.13711928	42.73083014	-7.253325358	8.482809797	0	0.05456319069	-52.12545652	780.6233108	-56.0471236	8.404923418	0	-0.04455390649	0	-2.1375654	0	0	-3.29235319	0	
2326.424468	-9.171697184	46.49405294	-7.730647771	8.496098776	0	0.06086108515	-52.71786785	778.5023678	-55.94578248	8.405434119	0	-0.04454488903	0	-2.409523853	0	0	-3.284224517	0	
2326.426136	-9.173586671	50.47019361	-8.199565629	8.508397335	0	0.06656760475	-53.31410263	776.2445431	-55.82001777	8.40594647	0	-0.04453310122	0	-2.693685747	0	0	-3.281324522	0	
2326.427799	-9.147338557	54.67285026	-8.659297695	8.519740857	0	0.07170812788	-53.9137672	773.8470415	-55.66916526	8.406460854	0	-0.04451842277	0	-2.988070949	0	0	-3.283745464	0	
2326.42947	-9.095980848	59.11331147	-9.108985296	8.530185521	0	0.07631952448	-54.51639357	771.3070394	-55.49258283	8.406977701	0	-0.04450073146	0	-3.290888211	0	0	-3.291562962	0	
2326.431129	-9.020971079	63.8003206	-9.547615338	8.539802695	0	0.08044682506	-55.12143848	768.6216917	-55.28965348	8.407497481	0	-0.04447990348	0	-3.60059402	0	0	-3.304835284	0	
2326.432799	-8.922271709	68.74003203	-9.973968522	8.548673012	0	0.08413976284	-55.72828285	765.7881396	-55.05978845	8.408020707	0	-0.04445581374	0	-3.915909547	0	0	-3.323602664	0	
2326.434465	-8.798521197	73.93612699	-10.38659232	8.556880797	0	0.08744957546	-56.33623153	762.803519	-54.80243038	8.408547932	0	-0.04442833628	0	-4.235802773	0	0	-3.347886652	0	
2326.436133	-8.647271133	79.39005031	-10.78379657	8.564509339	0	0.09042632573	-56.94451338	759.664969	-54.51705669	8.409079741	0	-0.04439734455	0	-4.559445959	0	0	-3.377689513	0	
2326.437799	-8.465260292	85.10132764	-11.16366815	8.571637221	0	0.09311687199	-57.55228172	756.3696424	-54.20318291	8.409616756	0	-0.04436271183	0	-4.886159236	0	0	-3.412993669	0	
2326.439465	-8.248699151	91.067924	-11.52410065	8.578335808	0	0.09556351029	-58.15861516	752.9147157	-53.8603661	8.410159626	0	-0.04432431157	0	-5.21535004	0	0	-3.453761195	0	
2326.441133	-7.993542629	97.2866091	-11.86283449	8.584667785	0	0.09780323217	-58.76251874	749.2974005	-53.48820837	8.410709027	0	-0.04428201782	0	-5.546456007	0	0	-3.499933373	0	
2326.442797	-7.695733925	103.7533011	-12.17750304	8.590686604	0	0.09986749628	-59.3629255	745.5149549	-53.08636029	8.411265658	0	-0.04423570554	0	-5.878896568	0	0	-3.551430312	0	
2326.444467	-7.351407758	110.4633675	-12.46568083	8.596436626	0	0.1017823928	-59.95869842	741.5646963	-52.65452438	8.41183024	0	-0.04418525102	0	-6.212036158	0	0	-3.608150637	0	
2326.446135	-6.957046612	117.4118689	-12.72493049	8.60195377	0	0.1035690805	-60.54863266	737.4440139	-52.19245855	8.412403508	0	-0.04413053223	0	-6.545160063	0	0	-3.669971258	0	
2326.447795	-6.509588324	124.5937403	-12.95284584	8.60726647	0	0.1052443892	-61.13145826	733.1503822	-51.69997937	8.41298621	0	-0.0440714292	0	-6.877462507	0	0	-3.736747219	0	
2326.449469	-6.006487278	132.0039077	-13.14708925	8.612396796	0	0.1068214998	-61.70584317	728.681375	-51.17696541	8.413579103	0	-0.04400782434	0	-7.208045553	0	0	-3.808311632	0	
